<svg xmlns="http://www.w3.org/2000/svg" viewBox="0 0 200 200" width="800" height="800" id="logo-v7-consistent">
  <defs>
    <linearGradient id="ph7" x1="0%" y1="0%" x2="100%" y2="100%">
      <stop offset="0%" stop-color="#0EA5E9"/><stop offset="100%" stop-color="#06B6D4"/>
    </linearGradient>
    <linearGradient id="arr7" x1="0%" y1="0%" x2="100%" y2="100%">
      <stop offset="0%" stop-color="#10B981"/><stop offset="100%" stop-color="#047857"/>
    </linearGradient>
    <filter id="sh7" x="-20%" y="-20%" width="140%" height="140%"><feDropShadow dx="0" dy="6" stdDeviation="7" flood-color="#0F172A" flood-opacity="0.13"/></filter>
    <g id="arrow7">
      <path d="M 171.5 119.2 A 74 74 0 0 1 93.5 173.7 L 95.6 149.8 A 50 50 0 0 0 148.3 112.9 Z" fill="url(#arr7)" stroke="#047857" stroke-width="1.5"/>
      <path d="M 93.5 173.7 L 64.4 150.8 L 95.6 149.8 Z" fill="url(#arr7)" stroke="#047857" stroke-width="1.5"/>
    </g>
  </defs>
  <rect id="bg7" x="6" y="6" width="188" height="188" rx="38" fill="white" stroke="#E2E8F0" stroke-width="1.2"/>
  <!-- three identical arrows, rotated 120° increments -->
  <use href="#arrow7"/>
  <use href="#arrow7" transform="rotate(120 100 100)"/>
  <use href="#arrow7" transform="rotate(240 100 100)"/>
  <!-- centered phone -->
  <g id="phone7" filter="url(#sh7)">
    <rect id="ph-body7" x="71" y="60" width="58" height="86" rx="13" fill="url(#ph7)" stroke="white" stroke-width="2.2"/>
    <rect id="ph-screen7" x="76.5" y="73" width="47" height="62" rx="7" fill="white"/>
    <rect id="ph-notch7" x="88" y="64" width="24" height="4.5" rx="2.25" fill="#0F172A"/>
    <circle id="coin7" cx="100" cy="102" r="16" fill="#ECFDF5" stroke="#10B981" stroke-width="1.6"/>
    <text id="yen7" x="100" y="109.5" text-anchor="middle" font-size="20" font-weight="800" font-family="Arial,sans-serif" fill="#059669">¥</text>
  </g>
</svg>